<?xml version="1.0" encoding="UTF-8" standalone="no"?>
<!-- Created with Inkscape (http://www.inkscape.org/) -->

<svg
   width="64.215637mm"
   height="64.461105mm"
   viewBox="0 0 102.137 102.52742"
   version="1.1"
   id="svg1"
   xmlns:xlink="http://www.w3.org/1999/xlink"
   xmlns="http://www.w3.org/2000/svg"
   xmlns:svg="http://www.w3.org/2000/svg">
  <defs
     id="defs1">
    <linearGradient
       xlink:href="#linearGradient1-9"
       id="linearGradient3-2"
       x1="71.317589"
       y1="97.420563"
       x2="49.903812"
       y2="15.56449"
       gradientUnits="userSpaceOnUse"
       gradientTransform="translate(-108.42425,0.64416442)" />
    <linearGradient
       id="linearGradient1-9">
      <stop
         style="stop-color:#f39208;stop-opacity:1;"
         offset="0.08606797"
         id="stop1-1" />
      <stop
         style="stop-color:#f3d008;stop-opacity:1;"
         offset="1"
         id="stop2-2" />
    </linearGradient>
    <filter
       style="color-interpolation-filters:sRGB"
       id="filter3-7"
       x="-0.0019137604"
       y="-0.0019262803"
       width="1.0038275"
       height="1.0038526">
      <feGaussianBlur
         stdDeviation="0.081075826"
         id="feGaussianBlur3-0" />
    </filter>
  </defs>
  <path
     id="cdviz"
     style="fill:url(#linearGradient3-2);fill-opacity:1;fill-rule:evenodd;stroke:none;stroke-width:0.318106;stroke-linejoin:round;stroke-dasharray:none;stroke-opacity:1;filter:url(#filter3-7)"
     d="m -79.375596,1.4710244 c -4.5125,0 -8.51009,0.85808 -11.99196,2.57346 -3.48187,1.71539 -6.40643,4.11653 -8.774104,7.2042196 -2.33982,3.08769 -4.12268,6.78378 -5.3483,11.08783 -1.19776,4.30406 -1.79674,9.04534 -1.79674,14.22268 0,5.27091 0.52948,10.07401 1.58797,14.40926 1.05849,4.33524 2.67423,8.04617 4.84692,11.13386 1.806174,2.53433 4.003174,4.58799 6.578734,6.1768 H -108.33384 V 102.48539 H -6.6586383 V 68.279134 H -23.895326 c 3.32242,-1.45421 6.15595,-3.50817 8.488068,-6.1768 2.5348,-2.93175 4.47072,-6.56519 5.8077597,-10.90044 1.33703,-4.36643 2.00551,-9.43413 2.00551,-15.20406 0,-5.48923 -0.66848,-10.32365 -2.00551,-14.50295 -1.3091897,-4.1793 -3.1756097,-7.67262 -5.5989897,-10.47961 -2.423378,-2.8381796 -5.362008,-4.9747196 -8.816018,-6.4094096 -3.45401,-1.43468 -7.31179,-2.15181 -11.5736,-2.15181 h -17.00573 V 68.279134 h -13.11964 v -6.83188 c -2.17269,0.71734 -4.37253,1.35699 -6.60092,1.91838 -2.2284,0.53021 -4.58211,0.79563 -7.0612,0.79563 -3.28689,0 -6.15602,-0.60832 -8.60725,-1.82468 -2.45124,-1.21637 -4.49884,-2.99434 -6.14229,-5.33351 -1.64344,-2.33916 -2.88276,-5.20849 -3.71841,-8.60807 -0.80779,-3.43077 -1.21234,-7.34529 -1.21234,-11.74291 0,-4.27287 0.45998,-8.10908 1.3792,-11.50866 0.94706,-3.39958 2.26994,-6.28458 3.9691,-8.65493 1.727,-2.37035 3.80273,-4.17883 6.22612,-5.42638 2.42337,-1.2787396 5.12539,-1.9183796 8.10587,-1.9183796 2.61836,0 4.95801,0.35856 7.01928,1.0758996 2.06127,0.71735 3.96906,1.57543 5.72392,2.57347 l 3.25895,-7.2987396 c -2.20054,-1.30993 -4.66594,-2.30732 -7.39572,-2.99347 -2.72979,-0.68615 -5.5981,-1.02988 -8.60643,-1.02988 z m 34.55393,8.4215 h 8.39766 c 3.25903,0 6.17035,0.5300096 8.73301,1.5904296 2.56265,1.02923 4.72112,2.6201 6.47598,4.77212 1.75486,2.15203 3.09181,4.89608 4.01102,8.23328 0.91921,3.30601 1.3792,7.2362 1.3792,11.78976 0,8.95119 -1.86642,15.70372 -5.59899,20.25729 -3.73256,4.55356 -9.27558,6.83023 -16.62928,6.83023 h -6.7686 z m -10.8766,62.5866696 c 0.42641,0 0.82437,0.0365 1.19262,0.10932 0.38765,0.0624 0.71662,0.16584 0.98796,0.31151 0.29074,0.14567 0.514,0.33329 0.66905,0.5622 0.17444,0.21851 0.26138,0.4843 0.26138,0.79645 0,0.60351 -0.3102,1.05608 -0.93043,1.35783 -0.60084,0.29134 -1.32777,0.43645 -2.18058,0.43645 -0.87219,0 -1.6085,-0.14511 -2.20934,-0.43645 -0.58147,-0.29134 -0.87207,-0.74392 -0.87207,-1.35783 0,-0.62431 0.2906,-1.07771 0.87207,-1.35865 0.60084,-0.28094 1.33715,-0.42083 2.20934,-0.42083 z m -51.720764,6.41434 h 5.46583 l 5.785574,9.53686 c 0.2132,0.34337 0.46462,0.78552 0.75535,1.32659 0.29073,0.54107 0.58216,1.09267 0.87289,1.65455 0.29073,0.56188 0.55236,1.09263 0.78495,1.59208 0.25196,0.49945 0.41645,0.87906 0.49398,1.13919 h 0.20383 c 0.0969,-0.26013 0.2614,-0.63974 0.49398,-1.13919 0.23259,-0.49945 0.49422,-1.0302 0.78495,-1.59208 0.29073,-0.56188 0.58133,-1.11348 0.87207,-1.65455 0.29073,-0.54107 0.54297,-0.98322 0.75617,-1.32659 l 5.78556,-9.53686 h 5.46584 l -10.9029,17.13724 h -6.71599 z m 49.046204,0 h 5.29159 v 17.13724 h -5.29159 z m 29.16043,0 h 20.0024877 v 2.27922 l -15.2344677,12.72018 h 15.7572177 v 2.13784 H -30.171586 v -1.95044 l 15.582968,-13.04813 h -14.623778 z"
     transform="matrix(0.73111463,0,0,0.73111463,93.065475,10.988232)" />
  <path
     id="rect2"
     style="fill:#f59300;fill-rule:evenodd;stroke:#0060f5;stroke-width:0.396042;stroke-linejoin:round"
     d="M 0.1980198,0.19802099 V 45.663898 A 51.130871,51.130871 0 0 1 47.168028,0.19802099 Z m 54.6945062,0 A 51.130871,51.130871 0 0 1 101.93897,46.419251 V 0.19802099 Z M 101.93897,55.946241 A 51.130871,51.130871 0 0 1 51.030277,102.31378 51.130871,51.130871 0 0 1 0.1980198,56.701595 V 102.3294 H 101.93897 Z" />
</svg>
